<svg width="125" height="27" viewBox="0 0 125 27" fill="none" xmlns="http://www.w3.org/2000/svg">
<g clip-path="url(#clip0_416_46)">
<path d="M0 0.342773H3.04611L22.4287 16.9263L11.6218 26.0844L0.892492 16.9263L4.13263 14.1275L11.6218 19.9727L15.1918 16.9263L4.13263 7.27321V9.63413L0 13.1945V0.342773Z" fill="white"/>
<path d="M20.0175 0H22.9995V13.2135L18.5734 9.36605V7.20914L17.4482 8.14186L14.2412 5.24654L20.0175 0Z" fill="white"/>
<path d="M31.5762 21.1987C30.8014 21.1987 30.0951 21.049 29.457 20.7495C28.819 20.45 28.3112 20.0073 27.9336 19.4214C27.5625 18.8289 27.377 18.103 27.377 17.2437V12.937H30.7754V17.0386C30.7754 17.3381 30.834 17.5789 30.9512 17.7612C31.0749 17.9435 31.2702 18.0347 31.5371 18.0347C32.0514 18.0347 32.3086 17.7189 32.3086 17.0874V3.85498H35.7754V16.7456C35.7754 17.6571 35.5964 18.4481 35.2383 19.1187C34.8802 19.7827 34.3854 20.297 33.7539 20.6616C33.1224 21.0197 32.3965 21.1987 31.5762 21.1987ZM41.3027 21.1987C38.3861 21.1987 36.9277 19.6851 36.9277 16.6577V10.7788C36.9277 9.3986 37.3151 8.29834 38.0898 7.47803C38.8646 6.6512 39.9355 6.23779 41.3027 6.23779C42.6764 6.23779 43.7507 6.6512 44.5254 7.47803C45.3001 8.29834 45.6875 9.3986 45.6875 10.7788V16.6577C45.6875 19.6851 44.2259 21.1987 41.3027 21.1987ZM41.3027 18.5034C41.5957 18.5034 41.804 18.3993 41.9277 18.1909C42.0579 17.9761 42.123 17.7059 42.123 17.3804V10.2222C42.123 9.3693 41.8496 8.94287 41.3027 8.94287C40.7559 8.94287 40.4824 9.3693 40.4824 10.2222V17.3804C40.4824 17.7059 40.5443 17.9761 40.668 18.1909C40.7982 18.3993 41.0098 18.5034 41.3027 18.5034ZM46.9863 21.0425V3.85498H50.5801V7.84912C50.7689 7.30225 51.0586 6.8986 51.4492 6.63818C51.8398 6.37126 52.2956 6.23779 52.8164 6.23779C53.832 6.23779 54.571 6.5568 55.0332 7.19482C55.4954 7.83285 55.7266 8.68896 55.7266 9.76318V21.0425H52.1914V9.98779C52.1914 9.66878 52.123 9.40837 51.9863 9.20654C51.8561 9.00472 51.6478 8.90381 51.3613 8.90381C51.1204 8.90381 50.9284 9.00798 50.7852 9.21631C50.6483 9.42464 50.5801 9.67204 50.5801 9.9585V21.0425H46.9863ZM57.1035 21.0425V6.39404H60.5996V8.25928C60.7298 7.69938 60.9706 7.22412 61.3223 6.8335C61.6803 6.43636 62.175 6.23779 62.8065 6.23779C63.8223 6.23779 64.5579 6.55029 65.0137 7.17529C65.4759 7.80029 65.707 8.65641 65.707 9.74365V21.0425H62.2598V10.105C62.2598 9.81852 62.2012 9.55485 62.084 9.31396C61.9668 9.06657 61.765 8.94287 61.4785 8.94287C61.2116 8.94287 61.013 9.03727 60.8828 9.22607C60.7591 9.40837 60.681 9.63949 60.6484 9.91943C60.6159 10.1929 60.5996 10.4663 60.5996 10.7397V21.0425H57.1035ZM66.918 21.0327V18.1226H70.4141V21.0327H66.918ZM71.7129 21.0425V3.85498H76.4395C77.6764 3.85498 78.6074 4.20003 79.2324 4.89014C79.8574 5.57373 80.1699 6.57633 80.1699 7.89795V15.9448C80.1699 17.5724 79.8835 18.8289 79.3105 19.7144C78.7441 20.5998 77.748 21.0425 76.3223 21.0425H71.7129ZM75.1699 18.0054H75.7656C76.3971 18.0054 76.7129 17.6994 76.7129 17.0874V8.22021C76.7129 7.6473 76.6348 7.27946 76.4785 7.1167C76.3288 6.94743 76.0195 6.86279 75.5508 6.86279H75.1699V18.0054ZM85.6191 21.1987C84.5775 21.1987 83.7474 21.0034 83.1289 20.6128C82.5104 20.2222 82.0676 19.659 81.8008 18.9233C81.5339 18.1877 81.4004 17.3022 81.4004 16.2671V10.3784C81.4004 9.01774 81.791 7.9891 82.5723 7.29248C83.3535 6.58936 84.4277 6.23779 85.7949 6.23779C88.6074 6.23779 90.0137 7.618 90.0137 10.3784V11.4429C90.0137 12.7319 90.0007 13.5978 89.9746 14.0405H84.8965V16.8726C84.8965 17.133 84.9128 17.3901 84.9453 17.644C84.9779 17.8914 85.0495 18.0965 85.1602 18.2593C85.2773 18.422 85.4629 18.5034 85.7168 18.5034C86.0814 18.5034 86.3092 18.3472 86.4004 18.0347C86.4915 17.7157 86.5371 17.3022 86.5371 16.7944V15.3882H90.0137V16.2183C90.0137 17.312 89.877 18.23 89.6035 18.9722C89.3366 19.7078 88.8809 20.2645 88.2363 20.6421C87.5983 21.0132 86.7259 21.1987 85.6191 21.1987ZM84.877 12.3022H86.5371V10.3296C86.5371 9.80225 86.472 9.42464 86.3418 9.19678C86.2116 8.9624 86.0163 8.84521 85.7559 8.84521C85.4759 8.84521 85.2578 8.95589 85.1016 9.17725C84.9518 9.3986 84.877 9.78271 84.877 10.3296V12.3022ZM95.2969 21.1987C92.4062 21.1987 90.9609 19.7339 90.9609 16.8042V15.6421H94.4766V17.3608C94.4766 17.6929 94.5416 17.9533 94.6719 18.1421C94.8021 18.3309 95.0104 18.4253 95.2969 18.4253C95.8046 18.4253 96.0586 18.0444 96.0586 17.2827C96.0586 16.6447 95.9251 16.1694 95.6582 15.8569C95.3913 15.5379 95.0658 15.2319 94.6816 14.939L92.8164 13.5034C92.2305 13.0477 91.7845 12.5659 91.4785 12.0581C91.1725 11.5503 91.0195 10.8439 91.0195 9.93896C91.0195 9.09912 91.2181 8.40576 91.6152 7.85889C92.0189 7.31201 92.5495 6.90511 93.207 6.63818C93.8711 6.37126 94.5872 6.23779 95.3555 6.23779C98.194 6.23779 99.6133 7.65381 99.6133 10.4858V10.7593H96V10.2026C96 9.90967 95.9479 9.62646 95.8438 9.35303C95.7461 9.07959 95.5508 8.94287 95.2578 8.94287C94.763 8.94287 94.5156 9.20329 94.5156 9.72412C94.5156 10.2515 94.724 10.6649 95.1406 10.9644L97.3086 12.5464C97.9857 13.0347 98.552 13.6141 99.0078 14.2847C99.4701 14.9552 99.7012 15.8472 99.7012 16.9604C99.7012 18.3407 99.3073 19.3921 98.5195 20.1147C97.7383 20.8374 96.6641 21.1987 95.2969 21.1987ZM100.756 5.49561V2.58545H104.252V5.49561H100.756ZM100.756 21.0425V6.39404H104.252V21.0425H100.756ZM109.584 23.5815C108.907 23.5815 108.324 23.5457 107.836 23.4741C107.354 23.409 106.921 23.2886 106.537 23.1128C106.153 22.937 105.769 22.6896 105.385 22.3706L106.566 20.3491C107.419 20.8569 108.272 21.1108 109.125 21.1108C109.685 21.1108 110.102 20.9318 110.375 20.5737C110.648 20.2157 110.785 19.7502 110.785 19.1772V17.7417C110.505 18.7443 109.76 19.2456 108.549 19.2456C107.852 19.2456 107.289 19.0796 106.859 18.7476C106.43 18.4155 106.117 17.9663 105.922 17.3999C105.727 16.8335 105.629 16.202 105.629 15.5054V10.2417C105.629 9.45394 105.714 8.76058 105.883 8.16162C106.052 7.55615 106.348 7.08415 106.771 6.74561C107.195 6.40706 107.787 6.23779 108.549 6.23779C109.193 6.23779 109.695 6.40055 110.053 6.72607C110.417 7.0516 110.661 7.49105 110.785 8.04443V6.39404H114.35V18.9526C114.35 20.6128 113.965 21.7977 113.197 22.5073C112.436 23.2235 111.231 23.5815 109.584 23.5815ZM109.965 16.6089C110.512 16.6089 110.785 16.1141 110.785 15.1245V10.144C110.785 9.87712 110.707 9.60368 110.551 9.32373C110.401 9.04378 110.193 8.90381 109.926 8.90381C109.587 8.90381 109.376 9.03076 109.291 9.28467C109.206 9.53206 109.164 9.81852 109.164 10.144V15.1245C109.164 15.4761 109.206 15.8114 109.291 16.1304C109.382 16.4494 109.607 16.6089 109.965 16.6089ZM115.717 21.0425V6.39404H119.213V8.25928C119.343 7.69938 119.584 7.22412 119.936 6.8335C120.294 6.43636 120.788 6.23779 121.42 6.23779C122.436 6.23779 123.171 6.55029 123.627 7.17529C124.089 7.80029 124.32 8.65641 124.32 9.74365V21.0425H120.873V10.105C120.873 9.81852 120.814 9.55485 120.697 9.31396C120.58 9.06657 120.378 8.94287 120.092 8.94287C119.825 8.94287 119.626 9.03727 119.496 9.22607C119.372 9.40837 119.294 9.63949 119.262 9.91943C119.229 10.1929 119.213 10.4663 119.213 10.7397V21.0425H115.717Z" fill="white"/>
</g>
<defs>
<clipPath id="clip0_416_46">
<rect width="125" height="27" fill="white"/>
</clipPath>
</defs>
</svg>
