<svg width="125" height="27" viewBox="0 0 125 27" fill="none" xmlns="http://www.w3.org/2000/svg">
<g clip-path="url(#clip0_441_189)">
<path d="M0 0.341797H3.04611L22.4287 16.9253L11.6218 26.0834L0.892492 16.9253L4.13263 14.1265L11.6218 19.9717L15.1918 16.9253L4.13263 7.27223V9.63315L0 13.1935V0.341797Z" fill="#2A232B"/>
<path d="M20.0175 0H22.9995V13.2135L18.5734 9.36605V7.20914L17.4482 8.14186L14.2412 5.24654L20.0175 0Z" fill="#2A232B"/>
<path d="M31.5762 21.1992C30.8014 21.1992 30.0951 21.0495 29.457 20.75C28.819 20.4505 28.3112 20.0078 27.9336 19.4219C27.5625 18.8294 27.377 18.1035 27.377 17.2442V12.9375H30.7754V17.0391C30.7754 17.3386 30.834 17.5794 30.9512 17.7617C31.0749 17.944 31.2702 18.0352 31.5371 18.0352C32.0514 18.0352 32.3086 17.7194 32.3086 17.0879V3.85547H35.7754V16.7461C35.7754 17.6576 35.5964 18.4486 35.2383 19.1192C34.8802 19.7832 34.3854 20.2975 33.7539 20.6621C33.1224 21.0202 32.3965 21.1992 31.5762 21.1992ZM41.3027 21.1992C38.3861 21.1992 36.9277 19.6856 36.9277 16.6582V10.7793C36.9277 9.39909 37.3151 8.29883 38.0898 7.47852C38.8646 6.65169 39.9355 6.23828 41.3027 6.23828C42.6764 6.23828 43.7507 6.65169 44.5254 7.47852C45.3001 8.29883 45.6875 9.39909 45.6875 10.7793V16.6582C45.6875 19.6856 44.2259 21.1992 41.3027 21.1992ZM41.3027 18.5039C41.5957 18.5039 41.804 18.3998 41.9277 18.1914C42.0579 17.9766 42.123 17.7064 42.123 17.3809V10.2227C42.123 9.36979 41.8496 8.94336 41.3027 8.94336C40.7559 8.94336 40.4824 9.36979 40.4824 10.2227V17.3809C40.4824 17.7064 40.5443 17.9766 40.668 18.1914C40.7982 18.3998 41.0098 18.5039 41.3027 18.5039ZM46.9863 21.043V3.85547H50.5801V7.84961C50.7689 7.30274 51.0586 6.89909 51.4492 6.63867C51.8398 6.37175 52.2956 6.23828 52.8164 6.23828C53.832 6.23828 54.571 6.55729 55.0332 7.19531C55.4954 7.83334 55.7266 8.68945 55.7266 9.76367V21.043H52.1914V9.98828C52.1914 9.66927 52.123 9.40886 51.9863 9.20703C51.8561 9.00521 51.6478 8.9043 51.3613 8.9043C51.1204 8.9043 50.9284 9.00847 50.7852 9.2168C50.6483 9.42513 50.5801 9.67253 50.5801 9.95899V21.043H46.9863ZM57.1035 21.043V6.39453H60.5996V8.25977C60.7298 7.69987 60.9706 7.22461 61.3223 6.83399C61.6803 6.43685 62.175 6.23828 62.8065 6.23828C63.8223 6.23828 64.5579 6.55078 65.0137 7.17578C65.4759 7.80078 65.707 8.6569 65.707 9.74414V21.043H62.2598V10.1055C62.2598 9.81901 62.2012 9.55534 62.084 9.31445C61.9668 9.06706 61.765 8.94336 61.4785 8.94336C61.2116 8.94336 61.013 9.03776 60.8828 9.22656C60.7591 9.40886 60.681 9.63998 60.6484 9.91992C60.6159 10.1934 60.5996 10.4668 60.5996 10.7402V21.043H57.1035ZM66.918 21.0332V18.1231H70.4141V21.0332H66.918ZM71.7129 21.043V3.85547H76.4395C77.6764 3.85547 78.6074 4.20052 79.2324 4.89063C79.8574 5.57422 80.1699 6.57682 80.1699 7.89844V15.9453C80.1699 17.5729 79.8835 18.8294 79.3105 19.7149C78.7441 20.6003 77.748 21.043 76.3223 21.043H71.7129ZM75.1699 18.0059H75.7656C76.3971 18.0059 76.7129 17.6999 76.7129 17.0879V8.2207C76.7129 7.64779 76.6348 7.27995 76.4785 7.11719C76.3288 6.94792 76.0195 6.86328 75.5508 6.86328H75.1699V18.0059ZM85.6191 21.1992C84.5775 21.1992 83.7474 21.0039 83.1289 20.6133C82.5104 20.2227 82.0676 19.6595 81.8008 18.9238C81.5339 18.1882 81.4004 17.3027 81.4004 16.2676V10.3789C81.4004 9.01823 81.791 7.98959 82.5723 7.29297C83.3535 6.58985 84.4277 6.23828 85.7949 6.23828C88.6074 6.23828 90.0137 7.61849 90.0137 10.3789V11.4434C90.0137 12.7324 90.0007 13.5983 89.9746 14.041H84.8965V16.8731C84.8965 17.1335 84.9128 17.3906 84.9453 17.6445C84.9779 17.8919 85.0495 18.097 85.1602 18.2598C85.2773 18.4225 85.4629 18.5039 85.7168 18.5039C86.0814 18.5039 86.3092 18.3477 86.4004 18.0352C86.4915 17.7162 86.5371 17.3027 86.5371 16.7949V15.3887H90.0137V16.2188C90.0137 17.3125 89.877 18.2305 89.6035 18.9727C89.3366 19.7083 88.8809 20.265 88.2363 20.6426C87.5983 21.0137 86.7259 21.1992 85.6191 21.1992ZM84.877 12.3027H86.5371V10.3301C86.5371 9.80274 86.472 9.42513 86.3418 9.19727C86.2116 8.96289 86.0163 8.8457 85.7559 8.8457C85.4759 8.8457 85.2578 8.95638 85.1016 9.17774C84.9518 9.39909 84.877 9.7832 84.877 10.3301V12.3027ZM95.2969 21.1992C92.4062 21.1992 90.9609 19.7344 90.9609 16.8047V15.6426H94.4766V17.3613C94.4766 17.6934 94.5416 17.9538 94.6719 18.1426C94.8021 18.3314 95.0104 18.4258 95.2969 18.4258C95.8046 18.4258 96.0586 18.0449 96.0586 17.2832C96.0586 16.6452 95.9251 16.1699 95.6582 15.8574C95.3913 15.5384 95.0658 15.2324 94.6816 14.9395L92.8164 13.5039C92.2305 13.0482 91.7845 12.5664 91.4785 12.0586C91.1725 11.5508 91.0195 10.8444 91.0195 9.93945C91.0195 9.09961 91.2181 8.40625 91.6152 7.85938C92.0189 7.3125 92.5495 6.9056 93.207 6.63867C93.8711 6.37175 94.5872 6.23828 95.3555 6.23828C98.194 6.23828 99.6133 7.6543 99.6133 10.4863V10.7598H96V10.2031C96 9.91016 95.9479 9.62695 95.8438 9.35352C95.7461 9.08008 95.5508 8.94336 95.2578 8.94336C94.763 8.94336 94.5156 9.20378 94.5156 9.72461C94.5156 10.252 94.724 10.6654 95.1406 10.9649L97.3086 12.5469C97.9857 13.0352 98.552 13.6146 99.0078 14.2852C99.4701 14.9557 99.7012 15.8477 99.7012 16.9609C99.7012 18.3412 99.3073 19.3926 98.5195 20.1152C97.7383 20.8379 96.6641 21.1992 95.2969 21.1992ZM100.756 5.4961V2.58594H104.252V5.4961H100.756ZM100.756 21.043V6.39453H104.252V21.043H100.756ZM109.584 23.582C108.907 23.582 108.324 23.5462 107.836 23.4746C107.354 23.4095 106.921 23.2891 106.537 23.1133C106.153 22.9375 105.769 22.6901 105.385 22.3711L106.566 20.3496C107.419 20.8574 108.272 21.1113 109.125 21.1113C109.685 21.1113 110.102 20.9323 110.375 20.5742C110.648 20.2162 110.785 19.7507 110.785 19.1777V17.7422C110.505 18.7448 109.76 19.2461 108.549 19.2461C107.852 19.2461 107.289 19.0801 106.859 18.7481C106.43 18.416 106.117 17.9668 105.922 17.4004C105.727 16.834 105.629 16.2025 105.629 15.5059V10.2422C105.629 9.45443 105.714 8.76107 105.883 8.16211C106.052 7.55664 106.348 7.08464 106.771 6.7461C107.195 6.40755 107.787 6.23828 108.549 6.23828C109.193 6.23828 109.695 6.40104 110.053 6.72656C110.417 7.05209 110.661 7.49154 110.785 8.04492V6.39453H114.35V18.9531C114.35 20.6133 113.965 21.7982 113.197 22.5078C112.436 23.224 111.231 23.582 109.584 23.582ZM109.965 16.6094C110.512 16.6094 110.785 16.1146 110.785 15.125V10.1445C110.785 9.87761 110.707 9.60417 110.551 9.32422C110.401 9.04427 110.193 8.9043 109.926 8.9043C109.587 8.9043 109.376 9.03125 109.291 9.28516C109.206 9.53255 109.164 9.81901 109.164 10.1445V15.125C109.164 15.4766 109.206 15.8119 109.291 16.1309C109.382 16.4499 109.607 16.6094 109.965 16.6094ZM115.717 21.043V6.39453H119.213V8.25977C119.343 7.69987 119.584 7.22461 119.936 6.83399C120.294 6.43685 120.788 6.23828 121.42 6.23828C122.436 6.23828 123.171 6.55078 123.627 7.17578C124.089 7.80078 124.32 8.6569 124.32 9.74414V21.043H120.873V10.1055C120.873 9.81901 120.814 9.55534 120.697 9.31445C120.58 9.06706 120.378 8.94336 120.092 8.94336C119.825 8.94336 119.626 9.03776 119.496 9.22656C119.372 9.40886 119.294 9.63998 119.262 9.91992C119.229 10.1934 119.213 10.4668 119.213 10.7402V21.043H115.717Z" fill="#2A232B"/>
</g>
<defs>
<clipPath id="clip0_441_189">
<rect width="125" height="27" fill="white"/>
</clipPath>
</defs>
</svg>
