<svg width="222" height="141" viewBox="0 0 222 141" fill="none" xmlns="http://www.w3.org/2000/svg">
<g opacity="0.5">
<path fill-rule="evenodd" clip-rule="evenodd" d="M80.0146 35.807C79.4314 35.7921 78.8369 35.8912 78.2435 35.9905C75.0625 36.3225 71.3588 36.6533 68.4936 38.1054C64.7315 40.0547 63.0588 42.8245 62.7554 45.9031C62.3317 50.2367 64.9338 55.3686 68.8627 59.0516C72.753 62.7259 77.872 65.0459 82.2798 64.2912C85.2971 63.8058 88.0379 61.8594 89.853 57.8394C91.9366 53.2972 91.172 48.346 88.8783 43.6329C88.0236 41.8085 86.9353 40.1647 85.7216 38.4924C87.5504 38.555 89.3969 38.6211 91.2686 38.6934C97.3742 39.1373 103.713 40.3328 109.731 42.0391C117.704 44.1861 125.181 47.6206 132.238 52.4751C132.898 52.8569 133.718 52.6919 134.074 52.0727C134.428 51.4533 134.189 50.5839 133.542 50.0883C126.205 45.0544 118.439 41.4379 110.151 39.22C103.945 37.5878 97.4361 36.238 91.1433 35.8685C88.5333 35.7463 85.9706 35.6346 83.4241 35.6433C80.4475 32.2916 77.0475 29.4269 74.1033 27.481C54.3636 14.8723 25.4969 18.9711 5.71706 25.0024C5.02668 25.1964 4.69165 25.9375 4.96302 26.698C5.23549 27.4587 6.02148 27.869 6.71187 27.675C25.8552 21.85 53.7714 17.6524 72.8736 29.8844C75.12 31.3233 77.6513 33.4093 80.0146 35.807ZM82.4464 38.5702C81.2448 38.5324 80.0386 38.6095 78.8233 38.8018C75.8986 39.1915 72.4935 39.3561 69.8751 40.6308C67.0363 42.0888 65.6708 44.1131 65.4461 46.3935C65.0876 50.0425 67.3684 54.0529 70.5516 56.9851C73.7599 60.0394 77.9417 62.1479 81.5878 61.4546C83.9304 61.0502 85.9914 59.5329 87.393 56.4687C89.1164 52.6612 88.4006 48.5376 86.5023 44.7295C85.457 42.5124 84.0427 40.4453 82.4464 38.5702Z" fill="black"/>
<path fill-rule="evenodd" clip-rule="evenodd" d="M5.93808 26.6398C6.39851 26.1434 7.05646 25.6924 7.71553 25.2415C8.9874 24.3293 10.3157 23.5501 11.056 22.7568C15.5994 18.0203 20.9858 12.2734 23.7627 6.04889C24.0707 5.39728 23.7614 4.48385 23.0638 4.08331C22.3674 3.68302 21.5549 3.85771 21.2344 4.62685C18.5782 10.518 13.3757 15.9468 9.00388 20.6022C8.21167 21.3837 6.60806 22.3396 5.30797 23.2453C4.19862 24.0745 3.29126 24.9501 2.8907 25.9416C2.62552 26.4827 2.73962 27.5921 3.93607 28.5884C5.63818 29.9413 10.5535 31.9107 11.0253 32.1391C15.8064 34.4382 19.9983 36.602 22.624 41.7775C23.0079 42.4672 23.8567 42.7818 24.5067 42.5697C25.1692 42.24 25.4039 41.3306 25.0189 40.6406C22.0219 34.7783 17.3614 32.0256 11.9065 29.4518C11.5498 29.3701 8.60966 28.215 6.60622 27.0338C6.39402 26.8648 6.14689 26.808 5.93808 26.6398Z" fill="black"/>
</g>
<path opacity="0.5" d="M9.79717 105.833L11.6489 92.0909L14.1929 92.4337L12.3411 106.176L9.79717 105.833ZM11.9245 90.0462L12.2833 87.3834L14.8272 87.7262L14.4684 90.389L11.9245 90.0462ZM21.6855 107.435L24.2805 88.177L26.8245 88.5198L24.2294 107.778L21.6855 107.435ZM31.1108 108.899C30.0964 108.762 29.3237 108.448 28.7928 107.957C28.2619 107.466 27.9209 106.823 27.7698 106.028C27.6346 105.235 27.6364 104.323 27.7752 103.293L28.3135 99.2989C28.4523 98.2686 28.6918 97.3891 29.0321 96.6603C29.3882 95.9337 29.8873 95.4039 30.5293 95.0708C31.1713 94.7377 31.9995 94.6395 33.0139 94.7762C34.0283 94.9129 34.793 95.2257 35.3081 95.7147C35.839 96.2059 36.1721 96.8478 36.3073 97.6407C36.4584 98.4357 36.4645 99.3483 36.3257 100.379L35.7874 104.373C35.6486 105.403 35.4011 106.281 35.045 107.008C34.7047 107.737 34.2136 108.268 33.5716 108.601C32.9455 108.936 32.1252 109.035 31.1108 108.899ZM31.3639 107.02C31.8553 107.087 32.2153 106.99 32.4439 106.73C32.6884 106.473 32.8575 106.116 32.9511 105.661C33.0627 105.192 33.1527 104.704 33.2211 104.196L33.801 99.8931C33.8714 99.37 33.9139 98.8755 33.9283 98.4094C33.9585 97.9455 33.8898 97.557 33.7222 97.2439C33.5726 96.9171 33.2521 96.7206 32.7608 96.6544C32.2694 96.5882 31.9004 96.6918 31.6538 96.9652C31.4093 97.2227 31.2323 97.5781 31.1228 98.0314C31.0292 98.4867 30.9471 98.976 30.8766 99.499L30.2967 103.802C30.2284 104.31 30.178 104.803 30.1457 105.283C30.1313 105.749 30.2079 106.138 30.3755 106.451C30.5431 106.765 30.8726 106.954 31.3639 107.02ZM39.7146 109.864L38.856 95.7571L41.4237 96.1031L41.622 107.386L44.8236 96.5613L47.2962 96.8945L42.8292 110.284L39.7146 109.864ZM51.3332 111.624C50.2554 111.478 49.4511 111.16 48.9201 110.669C48.3913 110.162 48.0625 109.488 47.9337 108.648C47.8229 107.794 47.8476 106.773 48.0077 105.584L48.4306 102.445C48.5951 101.225 48.8507 100.227 49.1974 99.4503C49.544 98.674 50.0384 98.1193 50.6804 97.7862C51.3382 97.4553 52.1902 97.3603 53.2363 97.5012C54.3933 97.6572 55.2093 98.0092 55.6841 98.5573C56.1748 99.1076 56.4464 99.8462 56.499 100.773C56.5538 101.684 56.4968 102.766 56.328 104.018L56.1775 105.135L50.7567 104.405L50.3851 107.163C50.3103 107.718 50.297 108.176 50.3451 108.537C50.4091 108.901 50.5403 109.185 50.7387 109.389C50.9551 109.58 51.2455 109.7 51.6101 109.749C51.9905 109.8 52.2875 109.751 52.5012 109.602C52.7329 109.44 52.9029 109.197 53.0111 108.872C53.1374 108.534 53.2315 108.135 53.2934 107.676L53.4055 106.844L55.8782 107.177L55.8077 107.7C55.6219 109.079 55.1823 110.125 54.4891 110.839C53.7958 111.552 52.7439 111.814 51.3332 111.624ZM50.9425 103.026L53.8669 103.42L54.0335 102.184C54.1104 101.613 54.1427 101.133 54.1306 100.744C54.1206 100.34 54.0254 100.028 53.845 99.8103C53.6825 99.5786 53.3873 99.4339 52.9594 99.3763C52.5473 99.3207 52.2175 99.3731 51.9699 99.5334C51.7383 99.6959 51.5518 100.002 51.4106 100.451C51.2716 100.884 51.1487 101.496 51.0419 102.289L50.9425 103.026ZM64.0171 113.139L65.8688 99.3972L68.4128 99.74L68.1501 101.69C68.7705 100.918 69.3535 100.423 69.8991 100.207C70.4448 99.9896 70.9712 99.9153 71.4784 99.9836C71.5418 99.9922 71.5973 99.9997 71.6448 100.006C71.7082 100.015 71.7864 100.033 71.8794 100.062L71.5013 102.867C71.3218 102.762 71.1085 102.669 70.8613 102.587C70.6321 102.492 70.3907 102.427 70.1371 102.393C69.7408 102.34 69.3634 102.386 69.005 102.531C68.6645 102.663 68.3005 102.969 67.913 103.449L66.561 113.482L64.0171 113.139ZM75.8383 114.926C74.7605 114.781 73.9561 114.462 73.4252 113.971C72.8964 113.464 72.5676 112.791 72.4388 111.95C72.328 111.096 72.3526 110.075 72.5128 108.886L72.9357 105.748C73.1002 104.527 73.3558 103.529 73.7024 102.752C74.0491 101.976 74.5434 101.421 75.1854 101.088C75.8433 100.757 76.6952 100.662 77.7413 100.803C78.8984 100.959 79.7143 101.311 80.1892 101.859C80.6798 102.41 80.9515 103.148 81.0041 104.075C81.0588 104.986 81.0018 106.068 80.8331 107.32L80.6825 108.438L75.2618 107.707L74.8902 110.465C74.8154 111.02 74.8021 111.478 74.8502 111.839C74.9142 112.203 75.0454 112.487 75.2438 112.691C75.4602 112.882 75.7506 113.002 76.1152 113.051C76.4956 113.102 76.7926 113.053 77.0063 112.905C77.238 112.742 77.408 112.499 77.5162 112.174C77.6425 111.836 77.7365 111.438 77.7985 110.978L77.9106 110.146L80.3832 110.479L80.3128 111.002C80.1269 112.381 79.6874 113.427 78.9942 114.141C78.3009 114.854 77.249 115.116 75.8383 114.926ZM75.4476 106.328L78.372 106.722L78.5386 105.486C78.6155 104.915 78.6478 104.436 78.6357 104.047C78.6257 103.642 78.5305 103.33 78.35 103.112C78.1876 102.881 77.8924 102.736 77.4645 102.678C77.0524 102.623 76.7226 102.675 76.475 102.836C76.2433 102.998 76.0569 103.304 75.9157 103.753C75.7767 104.186 75.6537 104.799 75.5469 105.591L75.4476 106.328ZM84.9893 116.159C84.4504 116.086 83.9952 115.872 83.6237 115.515C83.2543 115.142 82.9828 114.702 82.8091 114.195C82.6375 113.671 82.5881 113.14 82.6607 112.601C82.776 111.746 83.0159 111.044 83.3802 110.496C83.7445 109.948 84.1991 109.509 84.7438 109.178C85.3065 108.835 85.9331 108.556 86.6236 108.342C87.3298 108.131 88.0668 107.932 88.8343 107.745L88.9657 106.77C89.0404 106.215 89.0707 105.751 89.0564 105.378C89.0421 105.005 88.9437 104.717 88.7611 104.515C88.5966 104.3 88.3162 104.165 87.9199 104.112C87.5712 104.065 87.2752 104.105 87.032 104.234C86.8045 104.365 86.623 104.574 86.4873 104.863C86.3538 105.135 86.2603 105.469 86.2069 105.866L86.114 106.555L83.6067 106.12C83.8434 104.603 84.3427 103.533 85.1045 102.909C85.8684 102.27 86.9478 102.044 88.3426 102.232C89.7057 102.416 90.6224 102.918 91.0926 103.74C91.5628 104.562 91.7029 105.678 91.5128 107.089L90.667 113.366C90.6093 113.794 90.5617 114.207 90.5242 114.605C90.5025 115.006 90.484 115.382 90.4687 115.735C90.4714 116.075 90.4683 116.397 90.4594 116.702L88.1295 116.388C88.1161 116.128 88.0954 115.803 88.0674 115.412C88.0574 115.007 88.0579 114.644 88.0689 114.323C87.8378 114.84 87.4604 115.306 86.9367 115.719C86.4309 116.119 85.7818 116.266 84.9893 116.159ZM86.2826 114.106C86.5362 114.14 86.7836 114.101 87.0247 113.988C87.2658 113.876 87.4853 113.744 87.6831 113.593C87.8831 113.426 88.0223 113.292 88.1006 113.189L88.6261 109.29C88.1999 109.459 87.7975 109.63 87.4189 109.805C87.0403 109.98 86.6992 110.176 86.3956 110.394C86.1099 110.597 85.8665 110.847 85.6653 111.142C85.4821 111.424 85.3638 111.763 85.3104 112.16C85.2356 112.714 85.2799 113.164 85.4432 113.509C85.6066 113.854 85.8864 114.053 86.2826 114.106ZM93.3786 117.096L95.9736 97.8379L98.5176 98.1807L95.9225 117.439L93.3786 117.096ZM99.2871 117.892L101.882 98.6341L104.426 98.9769L101.831 118.235L99.2871 117.892ZM104.279 122.075L104.542 120.125C105.16 120.208 105.656 120.243 106.029 120.229C106.4 120.23 106.675 120.162 106.855 120.025C107.033 119.904 107.14 119.709 107.176 119.439C107.195 119.296 107.183 118.972 107.138 118.466C107.093 117.959 107.045 117.42 106.993 116.849L105.811 104.78L108.379 105.126L108.849 115.646L112.016 105.616L114.584 105.962L109.349 120.022C109.116 120.669 108.784 121.157 108.353 121.486C107.919 121.831 107.389 122.05 106.763 122.143C106.153 122.238 105.428 122.229 104.588 122.116L104.279 122.075ZM120.89 120.803L123.485 101.545L126.029 101.888L123.434 121.146L120.89 120.803ZM130.315 122.267C129.301 122.13 128.528 121.816 127.997 121.325C127.466 120.834 127.125 120.191 126.974 119.396C126.839 118.603 126.841 117.691 126.98 116.661L127.518 112.667C127.657 111.637 127.896 110.757 128.237 110.028C128.593 109.302 129.092 108.772 129.734 108.439C130.376 108.106 131.204 108.008 132.218 108.144C133.233 108.281 133.997 108.594 134.513 109.083C135.043 109.574 135.377 110.216 135.512 111.009C135.663 111.804 135.669 112.716 135.53 113.747L134.992 117.741C134.853 118.771 134.606 119.65 134.249 120.376C133.909 121.105 133.418 121.636 132.776 121.969C132.15 122.304 131.33 122.403 130.315 122.267ZM130.568 120.389C131.06 120.455 131.42 120.358 131.648 120.098C131.893 119.841 132.062 119.484 132.156 119.029C132.267 118.56 132.357 118.072 132.426 117.564L133.005 113.261C133.076 112.738 133.118 112.244 133.133 111.778C133.163 111.314 133.094 110.925 132.927 110.612C132.777 110.285 132.457 110.089 131.965 110.023C131.474 109.956 131.105 110.06 130.858 110.333C130.614 110.591 130.437 110.946 130.327 111.399C130.234 111.855 130.152 112.344 130.081 112.867L129.501 117.17C129.433 117.678 129.382 118.171 129.35 118.651C129.336 119.117 129.412 119.507 129.58 119.82C129.748 120.133 130.077 120.322 130.568 120.389ZM138.919 123.232L138.06 109.125L140.628 109.471L140.826 120.754L144.028 109.929L146.501 110.263L142.034 123.652L138.919 123.232ZM150.538 124.992C149.46 124.847 148.655 124.528 148.125 124.037C147.596 123.53 147.267 122.857 147.138 122.016C147.027 121.162 147.052 120.141 147.212 118.952L147.635 115.814C147.8 114.593 148.055 113.595 148.402 112.818C148.748 112.042 149.243 111.487 149.885 111.154C150.543 110.823 151.395 110.728 152.441 110.869C153.598 111.025 154.414 111.377 154.889 111.925C155.379 112.476 155.651 113.214 155.703 114.141C155.758 115.052 155.701 116.134 155.532 117.386L155.382 118.504L149.961 117.773L149.59 120.531C149.515 121.086 149.501 121.544 149.55 121.905C149.614 122.269 149.745 122.553 149.943 122.757C150.16 122.948 150.45 123.068 150.815 123.117C151.195 123.168 151.492 123.119 151.706 122.971C151.937 122.808 152.107 122.565 152.216 122.24C152.342 121.902 152.436 121.504 152.498 121.044L152.61 120.212L155.083 120.545L155.012 121.068C154.826 122.447 154.387 123.493 153.694 124.207C153 124.92 151.948 125.182 150.538 124.992ZM150.147 116.394L153.071 116.788L153.238 115.552C153.315 114.981 153.347 114.502 153.335 114.113C153.325 113.708 153.23 113.396 153.049 113.178C152.887 112.947 152.592 112.802 152.164 112.744C151.752 112.689 151.422 112.741 151.174 112.902C150.943 113.064 150.756 113.37 150.615 113.819C150.476 114.252 150.353 114.865 150.246 115.657L150.147 116.394ZM163.959 126.607L165.557 114.743L163.917 114.522L164.17 112.644L165.81 112.865L165.906 112.151C166.03 111.232 166.228 110.484 166.499 109.907C166.786 109.333 167.188 108.927 167.704 108.69C168.22 108.453 168.89 108.39 169.715 108.501C169.921 108.529 170.134 108.565 170.353 108.611C170.589 108.659 170.831 108.716 171.081 108.782L170.824 110.684C170.67 110.631 170.515 110.586 170.359 110.548C170.218 110.513 170.084 110.487 169.958 110.47C169.466 110.404 169.123 110.495 168.928 110.743C168.734 110.991 168.593 111.432 168.508 112.066L168.354 113.207L173.965 113.964L172.113 127.706L169.569 127.363L171.168 115.499L168.101 115.086L166.502 126.949L163.959 126.607ZM171.935 111.608L172.293 108.945L174.623 109.259L174.264 111.922L171.935 111.608ZM178.297 132.872C177.473 132.761 176.74 132.573 176.097 132.309C175.455 132.045 174.97 131.697 174.64 131.266C174.311 130.834 174.188 130.309 174.272 129.691C174.331 129.247 174.479 128.872 174.714 128.564C174.949 128.257 175.233 128.005 175.566 127.808C175.902 127.595 176.246 127.431 176.601 127.318C176.174 127.131 175.868 126.888 175.682 126.589C175.499 126.274 175.427 125.965 175.468 125.664C175.536 125.157 175.73 124.739 176.048 124.411C176.367 124.083 176.793 123.737 177.326 123.373C176.856 122.906 176.528 122.346 176.342 121.691C176.156 121.037 176.137 120.163 176.284 119.069C176.429 117.991 176.693 117.115 177.074 116.44C177.473 115.751 177.983 115.263 178.603 114.976C179.24 114.674 179.979 114.58 180.819 114.693C181.564 114.794 182.142 115.001 182.551 115.314C182.977 115.63 183.274 116.057 183.443 116.596C183.54 116.48 183.783 116.295 184.172 116.041C184.563 115.771 185.003 115.564 185.49 115.42L185.893 115.305L186.314 117.032C186.104 117.035 185.815 117.077 185.45 117.157C185.102 117.223 184.769 117.299 184.451 117.386C184.15 117.458 183.955 117.529 183.865 117.597C183.94 117.882 183.983 118.283 183.994 118.801C184.02 119.321 184.007 119.779 183.954 120.175C183.828 121.11 183.598 121.918 183.264 122.6C182.93 123.281 182.458 123.79 181.848 124.127C181.255 124.451 180.476 124.548 179.509 124.417C179.303 124.39 179.083 124.344 178.85 124.28C178.616 124.216 178.408 124.148 178.224 124.075C178.109 124.205 177.984 124.357 177.847 124.532C177.727 124.71 177.655 124.886 177.631 125.06C177.608 125.234 177.675 125.389 177.835 125.523C178.012 125.644 178.297 125.747 178.689 125.832L180.803 126.311C181.868 126.551 182.625 126.984 183.073 127.609C183.521 128.234 183.676 129.062 183.537 130.092C183.437 130.837 183.178 131.44 182.761 131.9C182.342 132.376 181.759 132.693 181.011 132.85C180.28 133.01 179.375 133.017 178.297 132.872ZM178.756 130.9C179.66 131.022 180.34 131.001 180.798 130.837C181.254 130.688 181.514 130.376 181.578 129.901C181.616 129.615 181.593 129.37 181.508 129.165C181.438 128.962 181.276 128.787 181.022 128.64C180.767 128.492 180.39 128.361 179.889 128.245L177.751 127.763C177.553 127.914 177.363 128.066 177.181 128.219C176.999 128.372 176.848 128.537 176.727 128.715C176.604 128.908 176.528 129.115 176.498 129.337C176.442 129.749 176.575 130.082 176.896 130.335C177.217 130.588 177.837 130.776 178.756 130.9ZM179.749 122.634C180.114 122.683 180.408 122.659 180.631 122.559C180.872 122.447 181.065 122.271 181.21 122.032C181.357 121.778 181.472 121.463 181.555 121.086C181.654 120.712 181.736 120.288 181.8 119.812C181.864 119.337 181.898 118.906 181.901 118.519C181.923 118.118 181.897 117.776 181.822 117.491C181.765 117.193 181.636 116.958 181.433 116.785C181.246 116.615 180.971 116.505 180.606 116.456C180.257 116.409 179.954 116.441 179.697 116.551C179.456 116.664 179.262 116.848 179.115 117.102C178.97 117.341 178.847 117.655 178.746 118.045C178.647 118.419 178.563 118.86 178.495 119.367C178.437 119.795 178.399 120.201 178.379 120.586C178.378 120.957 178.414 121.284 178.489 121.569C178.579 121.855 178.725 122.093 178.925 122.281C179.126 122.47 179.401 122.587 179.749 122.634ZM186.112 129.592L187.964 115.85L190.317 116.167L190.141 117.475C190.671 117.014 191.231 116.694 191.82 116.515C192.409 116.336 192.996 116.286 193.583 116.365C194.09 116.433 194.525 116.621 194.887 116.928C195.265 117.237 195.497 117.728 195.584 118.402C196.156 117.866 196.746 117.501 197.353 117.309C197.978 117.102 198.607 117.042 199.241 117.127C199.685 117.187 200.074 117.353 200.409 117.624C200.746 117.879 200.993 118.259 201.151 118.765C201.311 119.254 201.339 119.879 201.237 120.64L199.782 131.434L197.452 131.12L198.885 120.493C198.974 119.827 198.923 119.368 198.731 119.116C198.557 118.851 198.288 118.693 197.923 118.644C197.575 118.597 197.196 118.651 196.788 118.806C196.382 118.945 195.997 119.167 195.633 119.473C195.624 119.537 195.616 119.6 195.607 119.664C195.599 119.727 195.589 119.798 195.578 119.878L194.124 130.672L191.794 130.358L193.226 119.73C193.316 119.064 193.265 118.606 193.073 118.354C192.899 118.088 192.629 117.931 192.265 117.882C191.916 117.835 191.538 117.889 191.129 118.044C190.739 118.185 190.354 118.407 189.974 118.711L188.465 129.909L186.112 129.592ZM205.194 132.357C204.655 132.284 204.2 132.07 203.828 131.713C203.459 131.34 203.187 130.9 203.014 130.393C202.842 129.869 202.793 129.338 202.865 128.799C202.981 127.943 203.22 127.242 203.585 126.694C203.949 126.145 204.404 125.706 204.948 125.376C205.511 125.033 206.138 124.754 206.828 124.54C207.534 124.329 208.271 124.13 209.039 123.943L209.17 122.968C209.245 122.413 209.275 121.949 209.261 121.576C209.247 121.203 209.148 120.915 208.966 120.713C208.801 120.497 208.521 120.363 208.124 120.309C207.776 120.262 207.48 120.303 207.237 120.432C207.009 120.563 206.828 120.772 206.692 121.06C206.558 121.333 206.465 121.667 206.411 122.064L206.319 122.753L203.811 122.318C204.048 120.801 204.547 119.731 205.309 119.107C206.073 118.468 207.152 118.242 208.547 118.43C209.91 118.614 210.827 119.116 211.297 119.938C211.767 120.76 211.907 121.876 211.717 123.287L210.872 129.564C210.814 129.992 210.766 130.405 210.729 130.803C210.707 131.204 210.689 131.58 210.673 131.933C210.676 132.273 210.673 132.595 210.664 132.9L208.334 132.586C208.321 132.326 208.3 132.001 208.272 131.61C208.262 131.205 208.262 130.842 208.274 130.521C208.042 131.038 207.665 131.504 207.141 131.917C206.635 132.317 205.986 132.464 205.194 132.357ZM206.487 130.304C206.741 130.338 206.988 130.299 207.229 130.186C207.47 130.074 207.69 129.942 207.888 129.791C208.088 129.624 208.227 129.49 208.305 129.387L208.831 125.488C208.404 125.657 208.002 125.828 207.623 126.003C207.245 126.178 206.904 126.374 206.6 126.591C206.315 126.795 206.071 127.045 205.87 127.34C205.687 127.622 205.568 127.961 205.515 128.358C205.44 128.912 205.484 129.362 205.648 129.707C205.811 130.052 206.091 130.251 206.487 130.304ZM214.613 129.245L215.845 113.991L218.413 114.337L215.516 129.366L214.613 129.245ZM213.25 133.249L213.603 130.634L216.17 130.98L215.818 133.595L213.25 133.249Z" fill="black"/>
</svg>
